# xmcd
#
# Track frame offsets: 
#        150
#        14873
#        34856
#        50081
#        72557
#        86180
#        103098
#        125797
#        152551
#        173370
#        193283
#        209302
#        223914
#
# Disc length: 3045 seconds
#
# Revision: 0
# Processed by: cddbd v1.5.2PL0 Copyright (c) Steve Scherf et al.
# Submitted via: ExactAudioCopy v1.3
#
DISCID=cd0be30d
DTITLE=Aurelien Morro and The Checkers - French Quartet
DYEAR=2017
DGENRE=Funky Blues
TTITLE0=Solution
TTITLE1=Bayou Breeze
TTITLE2=Bound аor Memphis
TTITLE3=Funky Loco
TTITLE4=I Meant to Say Goodbye
TTITLE5=I Don't Want You
TTITLE6=Mo Hippa
TTITLE7=Say You'll Still Be There
TTITLE8=It's Your Thing
TTITLE9=Sad Day
TTITLE10=For What It's Worth
TTITLE11=Frenchmen Street
TTITLE12=Checkers All Stars
EXTD=
EXTT0=
EXTT1=
EXTT2=
EXTT3=
EXTT4=
EXTT5=
EXTT6=
EXTT7=
EXTT8=
EXTT9=
EXTT10=
EXTT11=
EXTT12=
PLAYORDER=
